<?xml version="1.0" encoding="iso-8859-1"?>
<!-- Generator: Adobe Illustrator 19.0.0, SVG Export Plug-In . SVG Version: 6.00 Build 0)  -->
<svg version="1.1" id="Capa_1" xmlns="http://www.w3.org/2000/svg" xmlns:xlink="http://www.w3.org/1999/xlink" x="0px" y="0px"
	 viewBox="0 0 472 472" style="enable-background:new 0 0 472 472;" xml:space="preserve">
<path style="fill:#9E1566;" d="M448,444h-16v-32H328v-16h112c4.418,0,8,3.582,8,8V444z"/>
<path style="fill:#FAA41B;" d="M16,284h136v120H16V284z"/>
<path style="fill:#6B778A;" d="M0,4h168v288H0V4z"/>
<path style="fill:#393856;" d="M24,28h120v16H24V28z"/>
<path style="fill:#75C9C1;" d="M32,68h104v64H32V68z"/>
<g>
	<path style="fill:#EFF2FA;" d="M112,156h24v16h-24V156z"/>
	<path style="fill:#EFF2FA;" d="M72,156h24v16H72V156z"/>
	<path style="fill:#EFF2FA;" d="M32,156h24v16H32V156z"/>
	<path style="fill:#EFF2FA;" d="M112,188h24v16h-24V188z"/>
	<path style="fill:#EFF2FA;" d="M72,188h24v16H72V188z"/>
	<path style="fill:#EFF2FA;" d="M32,188h24v16H32V188z"/>
	<path style="fill:#EFF2FA;" d="M112,220h24v16h-24V220z"/>
	<path style="fill:#EFF2FA;" d="M72,220h24v16H72V220z"/>
	<path style="fill:#EFF2FA;" d="M32,220h24v16H32V220z"/>
</g>
<path style="fill:#2CB357;" d="M112,252h24v16h-24V252z"/>
<path style="fill:#FFD33F;" d="M72,252h24v16H72V252z"/>
<path style="fill:#EE2849;" d="M32,252h24v16H32V252z"/>
<path style="fill:#393856;" d="M40,324h40v56H40V324z"/>
<g>
	<path style="fill:#EFF2FA;" d="M112,348h16v32h-16V348z"/>
	<path style="fill:#EFF2FA;" d="M112,292h16v40h-16V292z"/>
</g>
<path style="fill:#6B778A;" d="M200,4h264v368H200V4z"/>
<path style="fill:#EFF2FA;" d="M248,84h144v256H248V84z"/>
<path style="fill:#A6ADB9;" d="M272,124h48v16h-48V124z"/>
<path style="fill:#6B778A;" d="M336,124h32v16h-32V124z"/>
<path style="fill:#A6ADB9;" d="M272,156h32v16h-32V156z"/>
<path style="fill:#6B778A;" d="M336,156h32v16h-32V156z"/>
<path style="fill:#A6ADB9;" d="M272,188h48v16h-48V188z"/>
<path style="fill:#6B778A;" d="M336,188h32v16h-32V188z"/>
<g>
	<path style="fill:#A6ADB9;" d="M272,236h96v16h-96V236z"/>
	<path style="fill:#A6ADB9;" d="M304,268h32v16h-32V268z"/>
	<path style="fill:#A6ADB9;" d="M288,300h64v16h-64V300z"/>
</g>
<path style="fill:#9E1566;" d="M440,468h16c8.837,0,16-7.163,16-16s-7.163-16-16-16h-16V468z"/>
<path style="fill:#EC4B97;" d="M120,436h320v32H120V436z"/>
<path style="fill:#9E1566;" d="M120,468v-32l-56.064,7.008c-4.534,0.569-7.935,4.423-7.936,8.992
	c0.001,4.569,3.402,8.423,7.936,8.992L120,468z"/>
<path style="fill:#393856;" d="M232,4h200v96H232V4z"/>
<g>
</g>
<g>
</g>
<g>
</g>
<g>
</g>
<g>
</g>
<g>
</g>
<g>
</g>
<g>
</g>
<g>
</g>
<g>
</g>
<g>
</g>
<g>
</g>
<g>
</g>
<g>
</g>
<g>
</g>
</svg>
